<?xml version="1.0" standalone="no"?>
<!DOCTYPE svg PUBLIC "-//W3C//DTD SVG 1.1//EN"
"http://www.w3.org/Graphics/SVG/1.1/DTD/svg11.dtd">

<svg width="756" height="517" view_box="0 0 756 517"
xmlns="http://www.w3.org/2000/svg"
xmlns:link="http://www.w3.org/1999/xlink">\n\n<desc>Généré par Mocodo 2.3.7 le Tue, 26 Apr 2022 05:12:56</desc>

<rect id="frame" x="0" y="0" width="756" height="517" fill="#ffffbf" stroke="none" stroke-width="0"/>

<!-- Association ACHAT_PIECE -->
<line x1="104" y1="237" x2="295" y2="237" stroke="#66bd63" stroke-width="2"/>
<text x="204" y="254.0" fill="#d73027" font-family="Verdana" font-size="12">0,N</text>
<line x1="477" y1="237" x2="295" y2="237" stroke="#66bd63" stroke-width="2"/>
<text x="389" y="254.0" fill="#d73027" font-family="Verdana" font-size="12">0,N</text>
<g id="association-ACHAT_PIECE">
	<path d="M 335 203 a 14 14 90 0 1 14 14 V 228 h -108 V 217 a 14 14 90 0 1 14 -14" fill="#a6d96a" stroke="#a6d96a" stroke-width="0"/>
	<path d="M 349 228.0 v 29 a 14 14 90 0 1 -14 14 H 255 a 14 14 90 0 1 -14 -14 V 228.0 H 108" fill="#d9ef8b" stroke="#d9ef8b" stroke-width="0"/>
	<rect x="241" y="203" width="108" height="68" fill="none" rx="14" stroke="#66bd63" stroke-width="2"/>
	<line x1="241" y1="228" x2="349" y2="228" stroke="#66bd63" stroke-width="1"/>
	<text x="252" y="220.7" fill="#000000" font-family="Verdana" font-size="12">ACHAT_PIECE</text>
	<text x="248" y="245.8" fill="#000000" font-family="Verdana" font-size="12">NombreArticles</text>
	<text x="248" y="262.8" fill="#000000" font-family="Verdana" font-size="12">DateLivraison</text>
</g>

<!-- Association POSSEDE -->
<line x1="295" y1="406" x2="477" y2="406" stroke="#66bd63" stroke-width="2"/>
<text x="383" y="423.0" fill="#d73027" font-family="Verdana" font-size="12">0,1</text>
<line x1="658" y1="406" x2="477" y2="406" stroke="#66bd63" stroke-width="2"/>
<text x="553" y="423.0" fill="#d73027" font-family="Verdana" font-size="12">0,N</text>
<g id="association-POSSEDE">
	<path d="M 526 372 a 14 14 90 0 1 14 14 V 397 h -126 V 386 a 14 14 90 0 1 14 -14" fill="#a6d96a" stroke="#a6d96a" stroke-width="0"/>
	<path d="M 540 397.0 v 29 a 14 14 90 0 1 -14 14 H 428 a 14 14 90 0 1 -14 -14 V 397.0 H 126" fill="#d9ef8b" stroke="#d9ef8b" stroke-width="0"/>
	<rect x="414" y="372" width="126" height="68" fill="none" rx="14" stroke="#66bd63" stroke-width="2"/>
	<line x1="414" y1="397" x2="540" y2="397" stroke="#66bd63" stroke-width="1"/>
	<text x="447" y="389.7" fill="#000000" font-family="Verdana" font-size="12">POSSEDE</text>
	<text x="421" y="414.8" fill="#000000" font-family="Verdana" font-size="12">DateDebut_Fidelio</text>
	<text x="421" y="431.8" fill="#000000" font-family="Verdana" font-size="12">DateFinFidelio</text>
</g>

<!-- Association ACHAT_BICYCLETTE -->
<line x1="104" y1="237" x2="104" y2="85" stroke="#66bd63" stroke-width="2"/>
<text x="109.0" y="187" fill="#d73027" font-family="Verdana" font-size="12">0,N</text>
<line x1="295" y1="85" x2="104" y2="85" stroke="#66bd63" stroke-width="2"/>
<text x="178" y="102.0" fill="#d73027" font-family="Verdana" font-size="12">0,N</text>
<g id="association-ACHAT_BICYCLETTE">
	<path d="M 159 51 a 14 14 90 0 1 14 14 V 76 h -138 V 65 a 14 14 90 0 1 14 -14" fill="#a6d96a" stroke="#a6d96a" stroke-width="0"/>
	<path d="M 173 76.0 v 29 a 14 14 90 0 1 -14 14 H 49 a 14 14 90 0 1 -14 -14 V 76.0 H 138" fill="#d9ef8b" stroke="#d9ef8b" stroke-width="0"/>
	<rect x="35" y="51" width="138" height="68" fill="none" rx="14" stroke="#66bd63" stroke-width="2"/>
	<line x1="35" y1="76" x2="173" y2="76" stroke="#66bd63" stroke-width="1"/>
	<text x="42" y="68.7" fill="#000000" font-family="Verdana" font-size="12">ACHAT_BICYCLETTE</text>
	<text x="42" y="93.8" fill="#000000" font-family="Verdana" font-size="12">NombreArticles</text>
	<text x="42" y="110.8" fill="#000000" font-family="Verdana" font-size="12">DateLivraison</text>
</g>

<!-- Association FOURNIT -->
<line x1="658" y1="85" x2="658" y2="237" stroke="#66bd63" stroke-width="2"/>
<text x="663.0" y="161" fill="#d73027" font-family="Verdana" font-size="12">0,N</text>
<line x1="477" y1="237" x2="658" y2="237" stroke="#66bd63" stroke-width="2"/>
<text x="543" y="254.0" fill="#d73027" font-family="Verdana" font-size="12">0,N</text>
<g id="association-FOURNIT">
	<path d="M 726 178 a 14 14 90 0 1 14 14 V 203 h -164 V 192 a 14 14 90 0 1 14 -14" fill="#a6d96a" stroke="#a6d96a" stroke-width="0"/>
	<path d="M 740 203.0 v 79 a 14 14 90 0 1 -14 14 H 590 a 14 14 90 0 1 -14 -14 V 203.0 H 164" fill="#d9ef8b" stroke="#d9ef8b" stroke-width="0"/>
	<rect x="576" y="178" width="164" height="118" fill="none" rx="14" stroke="#66bd63" stroke-width="2"/>
	<line x1="576" y1="203" x2="740" y2="203" stroke="#66bd63" stroke-width="1"/>
	<text x="630" y="195.7" fill="#000000" font-family="Verdana" font-size="12">FOURNIT</text>
	<text x="583" y="220.7" fill="#000000" font-family="Verdana" font-size="12">Nom_Fournisseur</text>
	<text x="583" y="237.8" fill="#000000" font-family="Verdana" font-size="12">NumProduit_Fournisseur</text>
	<text x="583" y="254.8" fill="#000000" font-family="Verdana" font-size="12">Prix_Fournisseur</text>
	<text x="583" y="271.8" fill="#000000" font-family="Verdana" font-size="12">Quantite_Fournisseur</text>
	<text x="583" y="288.8" fill="#000000" font-family="Verdana" font-size="12">Delai_Fournisseur</text>
</g>

<!-- Association ASSEMBLER_PAR -->
<line x1="295" y1="85" x2="477" y2="85" stroke="#66bd63" stroke-width="2"/>
<text x="390" y="102.0" fill="#d73027" font-family="Verdana" font-size="12">1,N</text>
<line x1="477" y1="237" x2="477" y2="85" stroke="#66bd63" stroke-width="2"/>
<text x="482.0" y="178" fill="#d73027" font-family="Verdana" font-size="12">0,N</text>
<g id="association-ASSEMBLER_PAR">
	<path d="M 523 60 a 14 14 90 0 1 14 14 V 85 h -120 V 74 a 14 14 90 0 1 14 -14" fill="#a6d96a" stroke="#a6d96a" stroke-width="0"/>
	<path d="M 537 85.0 v 11 a 14 14 90 0 1 -14 14 H 431 a 14 14 90 0 1 -14 -14 V 85.0 H 120" fill="#d9ef8b" stroke="#d9ef8b" stroke-width="0"/>
	<rect x="417" y="60" width="120" height="50" fill="none" rx="14" stroke="#66bd63" stroke-width="2"/>
	<line x1="417" y1="85" x2="537" y2="85" stroke="#66bd63" stroke-width="1"/>
	<text x="424" y="77.7" fill="#000000" font-family="Verdana" font-size="12">ASSEMBLER_PAR</text>
</g>

<!-- Association EFFECTUE -->
<line x1="104" y1="237" x2="104" y2="406" stroke="#66bd63" stroke-width="2"/>
<text x="109.0" y="296" fill="#d73027" font-family="Verdana" font-size="12">1,1</text>
<line x1="295" y1="406" x2="104" y2="406" stroke="#66bd63" stroke-width="2"/>
<text x="185" y="423.0" fill="#d73027" font-family="Verdana" font-size="12">0,N</text>
<g id="association-EFFECTUE">
	<path d="M 128 381 a 14 14 90 0 1 14 14 V 406 h -76 V 395 a 14 14 90 0 1 14 -14" fill="#a6d96a" stroke="#a6d96a" stroke-width="0"/>
	<path d="M 142 406.0 v 11 a 14 14 90 0 1 -14 14 H 80 a 14 14 90 0 1 -14 -14 V 406.0 H 76" fill="#d9ef8b" stroke="#d9ef8b" stroke-width="0"/>
	<rect x="66" y="381" width="76" height="50" fill="none" rx="14" stroke="#66bd63" stroke-width="2"/>
	<line x1="66" y1="406" x2="142" y2="406" stroke="#66bd63" stroke-width="1"/>
	<text x="73" y="398.7" fill="#000000" font-family="Verdana" font-size="12">EFFECTUE</text>
</g>

<!-- Entity Fournisseur -->
<g id="entity-Fournisseur">
	<g id="frame-Fournisseur">
		<rect x="569" y="26" width="178" height="25" fill="#fdae61" stroke="#fdae61" stroke-width="0"/>
		<rect x="569" y="51.0" width="178" height="93" fill="#fee08b" stroke="#fee08b" stroke-width="0"/>
		<rect x="569" y="26" width="178" height="118" fill="none" stroke="#f46d43" stroke-width="2"/>
		<line x1="569" y1="51" x2="747" y2="51" stroke="#f46d43" stroke-width="1"/>
	</g>
	<text x="622" y="43.7" fill="#000000" font-family="Verdana" font-size="12">Fournisseur</text>
	<text x="574" y="68.7" fill="#000000" font-family="Verdana" font-size="12">Siret_Fournisseur</text>
	<line x1="574" y1="71" x2="681" y2="71" stroke="#000000" stroke-width="1"/>
	<text x="574" y="85.8" fill="#000000" font-family="Verdana" font-size="12">NomEntreprise_Fournisseur</text>
	<text x="574" y="102.8" fill="#000000" font-family="Verdana" font-size="12">Contact_Fournisseur</text>
	<text x="574" y="119.8" fill="#000000" font-family="Verdana" font-size="12">Adresse_Fournisseur</text>
	<text x="574" y="136.8" fill="#000000" font-family="Verdana" font-size="12">Libelle_Fournisseur</text>
</g>

<!-- Entity Fidelio -->
<g id="entity-Fidelio">
	<g id="frame-Fidelio">
		<rect x="580" y="347" width="156" height="25" fill="#fdae61" stroke="#fdae61" stroke-width="0"/>
		<rect x="580" y="372.0" width="156" height="93" fill="#fee08b" stroke="#fee08b" stroke-width="0"/>
		<rect x="580" y="347" width="156" height="118" fill="none" stroke="#f46d43" stroke-width="2"/>
		<line x1="580" y1="372" x2="736" y2="372" stroke="#f46d43" stroke-width="1"/>
	</g>
	<text x="638" y="364.7" fill="#000000" font-family="Verdana" font-size="12">Fidelio</text>
	<text x="585" y="389.7" fill="#000000" font-family="Verdana" font-size="12">NumProgramme_Fidelio</text>
	<line x1="585" y1="392" x2="731" y2="392" stroke="#000000" stroke-width="1"/>
	<text x="585" y="406.8" fill="#000000" font-family="Verdana" font-size="12">Description_Fidelio</text>
	<text x="585" y="423.8" fill="#000000" font-family="Verdana" font-size="12">Cout_Fidelio</text>
	<text x="585" y="440.8" fill="#000000" font-family="Verdana" font-size="12">Duree_Fidelio</text>
	<text x="585" y="457.8" fill="#000000" font-family="Verdana" font-size="12">Rabais_Fidelio</text>
</g>

<!-- Entity Bicyclette -->
<g id="entity-Bicyclette">
	<g id="frame-Bicyclette">
		<rect x="205" y="9" width="180" height="25" fill="#fdae61" stroke="#fdae61" stroke-width="0"/>
		<rect x="205" y="34.0" width="180" height="127" fill="#fee08b" stroke="#fee08b" stroke-width="0"/>
		<rect x="205" y="9" width="180" height="152" fill="none" stroke="#f46d43" stroke-width="2"/>
		<line x1="205" y1="34" x2="385" y2="34" stroke="#f46d43" stroke-width="1"/>
	</g>
	<text x="265" y="26.7" fill="#000000" font-family="Verdana" font-size="12">Bicyclette</text>
	<text x="210" y="51.7" fill="#000000" font-family="Verdana" font-size="12">ID_Bicyclette</text>
	<line x1="210" y1="54" x2="291" y2="54" stroke="#000000" stroke-width="1"/>
	<text x="210" y="68.7" fill="#000000" font-family="Verdana" font-size="12">Nom_Bicyclette</text>
	<text x="210" y="85.8" fill="#000000" font-family="Verdana" font-size="12">Grandeur_Bicyclette</text>
	<text x="210" y="102.8" fill="#000000" font-family="Verdana" font-size="12">Prix_Bicyclette</text>
	<text x="210" y="119.8" fill="#000000" font-family="Verdana" font-size="12">Type_Bicyclette</text>
	<text x="210" y="136.8" fill="#000000" font-family="Verdana" font-size="12">DateIntroduction_Bicyclette</text>
	<text x="210" y="153.8" fill="#000000" font-family="Verdana" font-size="12">DateFin_Bicyclette</text>
</g>

<!-- Entity Client -->
<g id="entity-Client">
	<g id="frame-Client">
		<rect x="212" y="304" width="166" height="25" fill="#fdae61" stroke="#fdae61" stroke-width="0"/>
		<rect x="212" y="329.0" width="166" height="179" fill="#fee08b" stroke="#fee08b" stroke-width="0"/>
		<rect x="212" y="304" width="166" height="204" fill="none" stroke="#f46d43" stroke-width="2"/>
		<line x1="212" y1="329" x2="378" y2="329" stroke="#f46d43" stroke-width="1"/>
	</g>
	<text x="277" y="321.7" fill="#000000" font-family="Verdana" font-size="12">Client</text>
	<text x="217" y="346.7" fill="#000000" font-family="Verdana" font-size="12">ID_Client</text>
	<line x1="217" y1="349" x2="274" y2="349" stroke="#000000" stroke-width="1"/>
	<text x="217" y="363.7" fill="#000000" font-family="Verdana" font-size="12">Type_Client</text>
	<text x="217" y="380.7" fill="#000000" font-family="Verdana" font-size="12">Tel_Client</text>
	<text x="217" y="397.7" fill="#000000" font-family="Verdana" font-size="12">Courriel_Client</text>
	<text x="217" y="414.8" fill="#000000" font-family="Verdana" font-size="12">Adresse_Client</text>
	<text x="217" y="431.8" fill="#000000" font-family="Verdana" font-size="12">Nom_Client</text>
	<text x="217" y="448.8" fill="#000000" font-family="Verdana" font-size="12">Prenom_Client</text>
	<text x="217" y="465.8" fill="#000000" font-family="Verdana" font-size="12">NumFidelio_Client</text>
	<text x="217" y="482.8" fill="#000000" font-family="Verdana" font-size="12">NomCompagnie_Client</text>
	<text x="217" y="499.8" fill="#000000" font-family="Verdana" font-size="12">RemiseCompagnie_Client</text>
</g>

<!-- Entity Commande -->
<g id="entity-Commande">
	<g id="frame-Commande">
		<rect x="9" y="195" width="190" height="25" fill="#fdae61" stroke="#fdae61" stroke-width="0"/>
		<rect x="9" y="220.0" width="190" height="59" fill="#fee08b" stroke="#fee08b" stroke-width="0"/>
		<rect x="9" y="195" width="190" height="84" fill="none" stroke="#f46d43" stroke-width="2"/>
		<line x1="9" y1="220" x2="199" y2="220" stroke="#f46d43" stroke-width="1"/>
	</g>
	<text x="69" y="212.7" fill="#000000" font-family="Verdana" font-size="12">Commande</text>
	<text x="14" y="237.8" fill="#000000" font-family="Verdana" font-size="12">ID_Commande</text>
	<line x1="14" y1="240" x2="105" y2="240" stroke="#000000" stroke-width="1"/>
	<text x="14" y="254.8" fill="#000000" font-family="Verdana" font-size="12">Date_Commande</text>
	<text x="14" y="271.8" fill="#000000" font-family="Verdana" font-size="12">AdresseLivraison_Commande</text>
</g>

<!-- Entity Piece -->
<g id="entity-Piece">
	<g id="frame-Piece">
		<rect x="416" y="186" width="122" height="25" fill="#fdae61" stroke="#fdae61" stroke-width="0"/>
		<rect x="416" y="211.0" width="122" height="77" fill="#fee08b" stroke="#fee08b" stroke-width="0"/>
		<rect x="416" y="186" width="122" height="102" fill="none" stroke="#f46d43" stroke-width="2"/>
		<line x1="416" y1="211" x2="538" y2="211" stroke="#f46d43" stroke-width="1"/>
	</g>
	<text x="461" y="203.7" fill="#000000" font-family="Verdana" font-size="12">Piece</text>
	<text x="421" y="228.7" fill="#000000" font-family="Verdana" font-size="12">NumProduit_Piece</text>
	<line x1="421" y1="231" x2="532" y2="231" stroke="#000000" stroke-width="1"/>
	<text x="421" y="245.8" fill="#000000" font-family="Verdana" font-size="12">Description_Piece</text>
	<text x="421" y="262.8" fill="#000000" font-family="Verdana" font-size="12">DateDebut_Piece</text>
	<text x="421" y="279.8" fill="#000000" font-family="Verdana" font-size="12">DateFin_Piece</text>
</g>
</svg>